<?xml version="1.0" encoding="UTF-8" standalone="no"?>
<!-- Created with Inkscape (http://www.inkscape.org/) -->

<svg
   version="1.1"
   id="svg2708"
   width="517.26367"
   height="681.14087"
   viewBox="0 0 517.26367 681.14087"
   sodipodi:docname="ew1.svg"
   inkscape:version="1.2.2 (732a01da63, 2022-12-09, custom)"
   xmlns:inkscape="http://www.inkscape.org/namespaces/inkscape"
   xmlns:sodipodi="http://sodipodi.sourceforge.net/DTD/sodipodi-0.dtd"
   xmlns="http://www.w3.org/2000/svg"
   xmlns:svg="http://www.w3.org/2000/svg">
  <defs
     id="defs2712" />
  <sodipodi:namedview
     id="namedview2710"
     pagecolor="#ffffff"
     bordercolor="#000000"
     borderopacity="0.25"
     inkscape:showpageshadow="2"
     inkscape:pageopacity="0.0"
     inkscape:pagecheckerboard="0"
     inkscape:deskcolor="#d1d1d1"
     showgrid="false"
     inkscape:zoom="1.0230643"
     inkscape:cx="241.43156"
     inkscape:cy="302.03381"
     inkscape:window-width="1920"
     inkscape:window-height="1031"
     inkscape:window-x="0"
     inkscape:window-y="25"
     inkscape:window-maximized="1"
     inkscape:current-layer="layer1" />
  <g
     inkscape:groupmode="layer"
     id="layer1"
     inkscape:label="Layer 1"
     transform="translate(-90.684033,-102.85911)">
    <path
       style="fill:#000000;stroke-width:1.33333"
       d="m 346.93601,780.04182 c -3.00525,-2.17699 -6.08657,-5.1213 -6.8474,-6.5429 -1.97413,-3.68872 -17.75521,-16.10368 -42.24845,-33.23682 -19.31193,-13.5088 -37.42726,-27.52543 -56.28634,-43.55121 -3.91205,-3.32434 -8.34604,-6.04424 -9.85329,-6.04424 -1.51643,0 -4.59259,2.18989 -6.88716,4.90292 -2.2807,2.6966 -6.06732,6.9272 -8.41472,9.40134 -4.11716,4.33943 -4.40284,4.42871 -8.08227,2.526 -6.51616,-3.36962 -19.48929,-17.00946 -26.787,-28.1636 -3.83832,-5.86666 -10.26473,-17.56666 -14.28091,-26 -13.63169,-28.62437 -17.2428,-35.18369 -20.78748,-37.75893 -3.30067,-2.39796 -3.74717,-2.4253 -6.63001,-0.40609 -5.26996,3.69123 -9.67082,2.73676 -15.10246,-3.27541 -10.27429,-11.37242 -15.83666,-31.73044 -18.70359,-68.45431 -2.13999,-27.41205 -2.26728,-28.39857 -6.035125,-46.77192 -1.353471,-6.6 -3.118552,-22.9331 -3.922406,-36.29578 -0.803852,-13.3627 -2.343073,-31.3627 -3.42049,-40 -3.077112,-24.66824 -2.662109,-34.21036 2.139841,-49.20105 4.555489,-14.22131 34.74046,-75.4047 48.18921,-97.67707 4.59655,-7.6123 9.11855,-15.21733 10.04889,-16.90004 2.01662,-3.64753 4.22608,-24.71353 4.27408,-40.7514 0.0429,-14.33014 2.93805,-31.29481 7.51874,-44.05745 7.79663,-21.72274 24.55242,-53.21234 34.33844,-64.53311 4.35628,-5.03946 4.62939,-5.14949 8.13063,-3.27568 6.59212,3.52799 27.72555,21.91154 50.92382,44.29763 l 22.87724,22.0763 25.12276,0.81004 c 13.81752,0.44552 43.42276,1.16464 65.78943,1.59802 l 40.66666,0.78799 8.5783,-18.97671 c 13.07346,-28.92079 22.92469,-42.65805 33.86937,-47.22995 7.14493,-2.98463 11.94586,-1.08445 21.06888,8.33892 17.55634,18.13435 43.86832,59.16947 53.11406,82.83463 4.56229,11.67753 13.49532,24.15885 28.9204,40.40793 24.00028,25.28235 40.73127,53.10739 47.14943,78.41345 2.62241,10.33983 2.81808,13.78787 2.23214,39.33334 -0.66793,29.12032 -3.59338,59.78025 -6.93413,72.67263 -1.69661,6.54746 -1.69865,9.08191 -0.0161,20.07704 1.05909,6.92102 3.14633,16.92606 4.6383,22.23344 4.0997,14.58387 3.59822,22.84502 -2.46204,40.55846 -9.16276,26.78171 -25.3992,68.14595 -27.78272,70.7797 -1.61449,1.784 -3.39781,2.341 -5.89564,1.84144 -5.32692,-1.06539 -6.57614,1.53233 -7.86337,16.35164 -1.70976,19.68372 -5.87292,30.43188 -22.12396,57.11813 -7.69198,12.6312 -15.54162,24.18993 -17.44364,25.68605 -3.26393,2.5674 -3.65269,2.59708 -6.92041,0.52823 -1.90421,-1.20559 -4.96221,-3.541 -6.79555,-5.1898 -10.2388,-9.2082 -12.91156,-7.67305 -32.89318,18.89281 -22.18768,29.49887 -26.98682,32.08164 -46.44015,24.99296 -20.42921,-7.44429 -20.10273,-7.49608 -22.95284,3.6407 -2.33116,9.109 -11.94004,23.3198 -24.94302,36.88881 -11.94631,12.46637 -21.85243,20.26108 -25.74935,20.26108 -1.44172,0 -5.08015,-1.78118 -8.08539,-3.95816 z m 18.48288,-11.80951 c 3.26754,-2.07221 10.05071,-8.22221 15.07371,-13.66667 11.35784,-12.31081 17.62852,-24.59558 18.88367,-36.99463 0.99136,-9.7933 3.41266,-14.90436 7.06074,-14.90436 1.30656,0 6.16756,2.67018 10.80223,5.93376 8.16109,5.74673 21.74338,11.40478 27.35297,11.39458 8.11644,-0.0148 14.61517,-8.15546 35.54292,-44.52329 6.58072,-11.43585 12.02287,-19.45964 13.19819,-19.45915 1.1,4.8e-4 5,2.39315 8.66666,5.31706 8.28527,6.6069 14.30414,10.65886 15.84256,10.66538 4.95826,0.0211 25.53387,-33.40204 31.87123,-51.77165 3.83613,-11.11946 3.95749,-12.18298 3.20794,-28.11102 -1.00313,-21.31692 -0.70529,-21.92032 10.24136,-20.74803 9.88552,1.05865 10.04367,0.91609 13.34679,-12.03097 1.30965,-5.13334 5.41205,-17.13334 9.11647,-26.66667 17.85258,-45.94384 17.63254,-43.30069 6.37365,-76.55908 -4.4,-12.99745 -8,-25.49276 -8,-27.76736 0,-2.47141 1.34791,-5.73752 3.3496,-8.1164 12.49505,-14.84952 17.21424,-71.40622 8.72719,-104.59026 -6.11231,-23.89885 -15.99008,-41.21536 -35.74519,-62.66401 -20.92087,-22.71436 -30.90213,-37.4458 -52.31128,-77.20661 -5.00598,-9.29705 -12.99574,-22.79705 -17.75501,-30 -8.34333,-12.62727 -28.15141,-36.4296 -30.31639,-36.4296 -0.57946,0 -4.99846,4.95 -9.82,11 -9.25365,11.61137 -19.90867,31.679 -24.7403,46.59581 -3.62215,11.18272 -7.85659,17.60044 -12.00496,18.19467 -1.75525,0.25144 -7.73463,-0.94856 -13.28751,-2.66667 -9.77249,-3.02368 -11.54937,-3.12169 -55.42948,-3.05753 -46.57949,0.0681 -68.88914,1.80928 -85.24199,6.65284 -3.61644,1.07114 -8.24331,1.94754 -10.28195,1.94754 -3.1682,0 -3.90619,-0.74118 -5.08061,-5.10269 -0.75571,-2.80648 -4.27427,-9.92826 -7.81901,-15.82617 -8.98622,-14.95167 -33.44299,-49.7378 -34.9687,-49.7378 -1.67976,0 -25.43612,47.69811 -29.14504,58.51752 -5.07932,14.81702 -6.89621,25.22448 -8.14336,46.64645 -1.9108,32.82129 -4.268,41.16364 -17.41192,61.62264 -17.92015,27.89334 -42.14918,81.33116 -48.006645,105.88005 -2.630403,11.02413 -2.73465,13.07316 -1.281887,25.19633 0.869751,7.25799 3.037252,18.22031 4.816672,24.36072 5.48548,18.92924 8.2322,40.78352 11.2834,89.77628 2.64604,42.48718 7.16745,63.4864 15.45361,71.77256 4.54772,4.54772 4.59959,4.56161 13.69071,3.66578 8.97262,-0.88413 9.18232,-0.83193 12.50082,3.1119 1.85632,2.20612 4.43132,6.88481 5.72223,10.3971 15.01973,40.86579 30.05196,68.50664 41.24535,75.84084 4.87849,3.19651 9.89497,0.64696 18.99468,-9.65372 4.11429,-4.65729 8.17278,-8.4678 9.01889,-8.4678 0.84609,0 5.62221,4.54496 10.61361,10.09992 10.68819,11.89496 26.75443,24.66748 50.70781,40.31225 25.93572,16.93951 41.684,28.33681 51.71357,37.42601 10.46343,9.48238 13.42995,10.06504 22.372,4.39415 z M 215.99999,579.74413 c -26.11124,-3.25105 -58.4626,-21.10957 -67.33333,-37.1692 -3.92758,-7.11052 -4,-7.5916 -4,-26.57494 0,-23.55267 1.09273,-26.5359 15.53897,-42.42215 5.4391,-5.98127 13.16791,-16.33249 17.17515,-23.00272 7.59119,-12.63591 24.59355,-38.39408 39.34939,-59.61338 8.83321,-12.7024 10.852,-18.96175 6.11564,-18.96175 -5.19398,0 -21.47952,-9.66392 -31.98286,-18.97876 -10.10452,-8.96116 -11.48833,-10.83815 -18.44682,-25.02124 -9.76036,-19.89393 -11.02994,-30.71953 -4.38222,-37.36725 5.44263,-5.44263 15.4831,-2.04091 25.22251,8.54542 5.36136,5.82759 15.17088,11.3857 22.57172,12.78924 16.90988,3.2069 34.79073,24.65923 34.82549,41.78148 0.0291,14.32632 -22.77414,49.93736 -69.49702,108.53119 -14.5084,18.19456 -18.93531,25.176 -21.04642,33.19116 -1.6851,6.39777 0.0628,13.14726 3.94239,15.22357 3.93476,2.10581 15.41275,1.50973 28.04769,-1.4566 6.47004,-1.51899 13.44432,-2.56899 15.49839,-2.33333 5.04645,0.57894 8.39891,7.4083 8.39183,17.09511 -0.008,11.55662 -2.07366,16.66954 -10.06631,24.92168 -8.89195,9.18063 -9.66857,13.76244 -2.92419,17.25178 17.19111,8.89417 47.38348,7.44461 68.52471,-3.28995 9.25612,-4.69984 13.63922,-9.11665 18.29802,-18.43877 7.23191,-14.47086 33.20191,-41.57357 41.93672,-43.76588 2.09186,-0.52501 4.0372,-0.12027 5.24967,1.09217 1.67949,1.6795 1.6386,2.53255 -0.31919,6.65828 -5.64261,11.89093 -52.58452,62.26397 -62.73222,67.31753 -10.83554,5.39611 -33.93013,6.98894 -57.95771,3.99731 z m -24.30297,-29.08695 c 14.80229,-9.88458 22.42819,-24.37017 17.5894,-33.41151 -1.83443,-3.42766 -4.64047,-3.25903 -16.94129,1.01806 -12.29947,4.27661 -21.0343,4.56812 -30.81358,1.02832 l -7.13509,-2.58268 -2.62955,3.24735 c -5.85901,7.23557 2.25686,23.46641 16.13458,32.2674 8.51705,5.40134 13.8903,5.04752 23.79553,-1.56694 z M 228.10349,348.573 c 5.60664,-5.07394 1.85624,-17.37317 -6.50787,-21.3422 -12.07268,-5.72886 -24.81891,5.76372 -18.82139,16.9702 3.70082,6.91503 19.50494,9.64294 25.32926,4.372 z m 145.22983,144.97649 c 0,-4.4473 9.81253,-12.66984 23.75701,-19.9075 15.57354,-8.08319 27.20131,-12.32979 48.44776,-17.6937 19.15687,-4.83637 25.88067,-7.81152 32.40989,-14.34074 10.49819,-10.49819 20.57103,-38.19608 23.32622,-64.14148 0.74754,-7.03968 1.97856,-18.71107 2.73556,-25.93641 1.33974,-12.7874 2.89374,-18.19634 5.22781,-18.19634 1.92219,0 2.82441,3.9404 4.18137,18.26184 2.79963,29.54735 -2.6159,57.73257 -16.21762,84.40483 -11.81382,23.16625 -15.78291,26.11349 -43.05142,31.96781 -22.52583,4.83611 -34.83609,8.99821 -55.48325,18.75896 -9.16666,4.33345 -18.61666,8.26771 -21,8.74279 -3.78104,0.75368 -4.33333,0.50897 -4.33333,-1.92006 z M 335.22024,380.77144 c -6.98996,-3.04342 -9.88692,-8.03265 -9.88692,-17.0275 0,-12.31264 2.33816,-19.36406 8.54006,-25.755 7.49487,-7.72338 17.10266,-11.04527 36.56855,-12.64358 18.71415,-1.5366 24.78027,-3.24166 45.20367,-12.70586 16.24421,-7.52758 25.0106,-9.28883 26.5297,-5.33008 3.27524,8.53513 -20.04306,42.97701 -36.84198,54.41677 -3.3,2.24725 -7.76391,5.77817 -9.91979,7.84652 -2.15588,2.06833 -4.87668,3.76061 -6.04621,3.76061 -1.16953,0 -5.70563,1.2697 -10.08021,2.82155 -7.49755,2.65972 -29.30698,6.49131 -36.62046,6.43368 -1.83333,-0.0144 -5.18422,-0.83215 -7.44641,-1.81711 z m 36.37195,-10.76922 c 1.5687,-1.09876 3.87945,-4.68758 5.13497,-7.97512 5.53895,-14.50351 -4.99284,-25.45134 -18.00899,-18.72042 -4.79945,2.4819 -9.38485,8.22156 -9.38485,11.74727 0,5.5358 11.67975,16.92713 17.36999,16.94105 1.12017,0.003 3.32016,-0.89401 4.88888,-1.99278 z M 178.28842,232.06911 c -1.45192,-22.41046 3.50027,-47.92833 13.14321,-67.72499 5.58702,-11.46999 8.53307,-13.70167 12.48619,-9.45848 7.78861,8.36009 29.41551,46.59014 29.41551,51.99805 0,5.90886 -5.78036,3.42404 -16.3555,-7.0308 -10.67392,-10.55252 -13.47604,-12.35159 -17.61857,-11.31188 -5.02467,1.26112 -8.58457,9.4798 -14.75556,34.06582 l -5.50688,21.94018 z m 305.62011,-21.73578 c -2.25949,-3.11667 -8.30293,-12.7532 -13.42985,-21.41452 -11.41794,-19.28919 -12.91446,-19.72732 -19.07848,-5.58548 -5.5117,12.64525 -6.13618,13.54469 -7.59464,10.93854 -2.50314,-4.47284 -2.80732,-17.56576 -0.6076,-26.15211 2.66428,-10.39971 8.30086,-21.06324 12.63469,-23.90288 3.13571,-2.0546 3.37897,-1.94452 8.69664,3.93518 5.61269,6.20592 16.69887,26.21871 22.49616,40.61013 9.00768,22.36099 7.08788,35.64727 -3.11692,21.57114 z"
       id="path3189" />
  </g>
</svg>
